<?xml version="1.0" encoding="utf-8"?>
<!-- Generator: Adobe Illustrator 21.1.0, SVG Export Plug-In . SVG Version: 6.00 Build 0)  -->
<svg version="1.1" xmlns="http://www.w3.org/2000/svg" xmlns:xlink="http://www.w3.org/1999/xlink" x="0px" y="0px"
	 viewBox="0 0 689.1 548.6" style="enable-background:new 0 0 689.1 548.6;" xml:space="preserve">
<style type="text/css">
	.st0{fill:#F15A24;}
	.st1{fill:none;}
	.st2{fill:#073998;}
	.st3{fill:#0B59B1;}
	.st4{fill:#0F6CAF;}
	.st5{fill:#228FAB;}
	.st6{fill:#289683;}
	.st7{fill:#33A05A;}
	.st8{fill:#38A662;}
	.st9{fill:#6BB42A;}
	.st10{fill:#95BA12;}
	.st11{fill:#91C21E;}
	.st12{fill:#77BB28;}
	.st13{fill:#73C030;}
	.st14{fill:#50B755;}
	.st15{fill:#45B468;}
	.st16{fill:#2A9B9B;}
	.st17{fill:#1E7EA9;}
	.st18{fill:#143090;}
	.st19{fill:#1248AA;}
	.st20{fill:#1C41A4;}
	.st21{fill:#2E2A94;}
	.st22{fill:#401D8C;}
	.st23{fill:#A9416B;}
	.st24{fill:#8A895B;}
	.st25{fill:#399583;}
	.st26{fill:#C1C80D;}
	.st27{fill:#9CD337;}
	.st28{fill:#FAE910;}
	.st29{fill:#AAC80D;}
	.st30{fill:#A5A905;}
	.st31{fill:#F8E008;}
	.st32{fill:#FDD808;}
	.st33{fill:#FBC70F;}
	.st34{fill:#FAC50B;}
	.st35{fill:#F89D20;}
	.st36{fill:#F75817;}
	.st37{fill:#FD7A08;}
	.st38{fill:#FA5009;}
	.st39{fill:#FC5512;}
	.st40{fill:#FE7804;}
	.st41{fill:#FE9601;}
	.st42{fill:#FFD20A;}
	.st43{fill:#FB4702;}
	.st44{fill:#ED230A;}
	.st45{fill:#ED1B0F;}
	.st46{fill:#E3111B;}
	.st47{fill:#EF1C15;}
	.st48{fill:#F52D41;}
	.st49{fill:#EC1546;}
	.st50{fill:#EA1022;}
	.st51{fill:#E00C22;}
	.st52{fill:#E20B3F;}
	.st53{fill:#D1073E;}
	.st54{fill:#BD073F;}
	.st55{fill:#D3085C;}
	.st56{fill:#DD0C50;}
	.st57{fill:#6B0B6B;}
	.st58{fill:#5C0F70;}
	.st59{fill:#8C0660;}
	.st60{display:none;}
	.st61{display:inline;opacity:0.3;}
	.st62{fill:#FFFFFF;}
</style>
<g id="Layer_3">
</g>
<g id="Layer_2">
	<polygon class="st0" points="535.8,522.7 502,548.6 651.3,548.6 	"/>
	<polygon class="st1" points="187.4,139.9 62.4,112 219.7,147.1 	"/>
	<polygon class="st2" points="114.8,0 0,0 0,51.8 62.4,112 	"/>
	<polygon class="st3" points="0,51.8 0,92.4 62.4,112 	"/>
	<polygon class="st4" points="0,92.4 0,141.2 62.4,112 	"/>
	<polygon class="st5" points="62.4,112 0,141.2 0,261.7 11.3,286 	"/>
	<polygon class="st6" points="0,261.7 0,288.4 11.3,286 	"/>
	<polygon class="st7" points="11.3,286 0,288.4 0,345.8 18.6,354.2 	"/>
	<polygon class="st8" points="0,345.8 0,373.6 18.6,354.2 	"/>
	<polygon class="st9" points="0,373.6 0,454.9 18.6,354.2 	"/>
	<polygon class="st10" points="0,454.9 0,535.4 91.6,417.9 	"/>
	<polygon class="st11" points="25.3,431 0,454.9 91.6,417.9 	"/>
	<polygon class="st12" points="18.6,354.2 0,454.9 25.3,431 	"/>
	<polygon class="st13" points="25.3,431 91.6,417.9 18.6,354.2 	"/>
	<polygon class="st13" points="18.6,354.2 91.6,417.9 98.1,314.4 	"/>
	<polygon class="st14" points="11.3,286 18.6,354.2 98.1,314.4 	"/>
	<polygon class="st15" points="163.8,238.1 11.3,286 98.1,314.4 	"/>
	<polygon class="st16" points="62.4,112 11.3,286 163.8,238.1 	"/>
	<polygon class="st17" points="219.7,147.1 62.4,112 163.8,238.1 	"/>
	<polygon class="st18" points="229.7,0 114.8,0 62.4,112 	"/>
	<polygon class="st19" points="187.4,139.9 265.9,0 229.7,0 62.4,112 	"/>
	<polygon class="st20" points="219.7,147.1 273.5,0 265.9,0 187.4,139.9 	"/>
	<polygon class="st21" points="319.3,0 273.5,0 219.7,147.1 	"/>
	<polygon class="st22" points="454.2,94.1 372.4,0 319.3,0 219.7,147.1 	"/>
	<polygon class="st23" points="454.2,94.1 219.7,147.1 377.1,213.5 	"/>
	<polygon class="st24" points="377.1,213.5 219.7,147.1 239.7,248.3 	"/>
	<polygon class="st25" points="239.7,248.3 219.7,147.1 163.8,238.1 	"/>
	<polygon class="st26" points="163.8,238.1 266.9,348.4 239.7,248.3 	"/>
	<polygon class="st27" points="98.1,314.4 266.9,348.4 163.8,238.1 	"/>
	<polygon class="st28" points="91.6,417.9 199.5,548.6 231.8,548.6 266.9,348.4 	"/>
	<polygon class="st29" points="91.6,417.9 266.9,348.4 98.1,314.4 	"/>
	<polygon class="st30" points="0,535.4 0,548.6 57.5,548.6 91.6,417.9 	"/>
	<polygon class="st31" points="57.5,548.6 199.5,548.6 91.6,417.9 	"/>
	<polygon class="st32" points="231.8,548.6 273.8,548.6 444.8,432.7 266.9,348.4 	"/>
	<polygon class="st33" points="266.9,348.4 444.8,432.7 362.3,251.9 	"/>
	<polygon class="st34" points="266.9,348.4 362.3,251.9 239.7,248.3 	"/>
	<polygon class="st35" points="239.7,248.3 362.3,251.9 377.1,213.5 	"/>
	<polygon class="st36" points="362.3,251.9 498,272.9 377.1,213.5 	"/>
	<polygon class="st37" points="362.3,251.9 444.8,432.7 498,272.9 	"/>
	<polygon class="st38" points="498,272.9 444.8,432.7 605.5,320 	"/>
	<polygon class="st39" points="605.5,320 444.8,432.7 624,422.6 	"/>
	<polygon class="st40" points="444.8,432.7 535.8,522.7 624,422.6 	"/>
	<polygon class="st41" points="444.8,432.7 449.3,548.6 502,548.6 535.8,522.7 	"/>
	<polygon class="st42" points="449.3,548.6 444.8,432.7 273.8,548.6 	"/>
	<polygon class="st43" points="689.1,548.6 624,422.6 535.8,522.7 651.3,548.6 689.1,548.6 	"/>
	<polygon class="st44" points="689.1,548.6 689.1,337.7 624,422.6 	"/>
	<polygon class="st45" points="624,422.6 689.1,337.7 689.1,287.1 605.5,320 	"/>
	<polygon class="st46" points="605.5,320 689.1,287.1 689.1,253.9 641,244.2 	"/>
	<polygon class="st47" points="498,272.9 605.5,320 641,244.2 	"/>
	<polygon class="st48" points="377.1,213.5 498,272.9 454.2,94.1 	"/>
	<polygon class="st49" points="454.2,94.1 498,272.9 594.2,172.7 	"/>
	<polygon class="st50" points="594.2,172.7 498,272.9 641,244.2 	"/>
	<polygon class="st51" points="641,244.2 689.1,253.9 689.1,231.1 594.2,172.7 	"/>
	<polygon class="st52" points="689.1,231.1 689.1,70 594.2,172.7 	"/>
	<polygon class="st53" points="689.1,70 689.1,9.8 665.5,0 589,0 594.2,172.7 	"/>
	<polygon class="st54" points="689.1,0 665.5,0 689.1,9.8 	"/>
	<polygon class="st55" points="594.2,172.7 589,0 535.2,0 459,46.7 	"/>
	<polygon class="st56" points="459,46.7 454.2,94.1 594.2,172.7 	"/>
	<polygon class="st57" points="459,46.7 391.9,0 372.4,0 454.2,94.1 	"/>
	<polygon class="st58" points="444.2,0 391.9,0 459,46.7 	"/>
	<polygon class="st59" points="535.2,0 444.2,0 459,46.7 	"/>
</g>
<g id="Layer_4">
</g>
<g id="Layer_5" class="st60">
	<g class="st61">
		<path class="st62" d="M655.2-299.8l0.3,1c0.1,0.2,0.1,0.4,0.1,0.7h0c0-0.2,0.1-0.4,0.2-0.6l0.3-1h0.3l0.3,1
			c0.1,0.2,0.1,0.5,0.2,0.7h0c0-0.2,0.1-0.4,0.1-0.7l0.3-1h0.3l-0.6,2h-0.3l-0.3-1c-0.1-0.2-0.1-0.4-0.2-0.7h0
			c0,0.2-0.1,0.5-0.2,0.7l-0.3,1h-0.3l-0.6-2H655.2z"/>
		<path class="st62" d="M657.9-299.8l0.3,1c0.1,0.2,0.1,0.4,0.1,0.7h0c0-0.2,0.1-0.4,0.2-0.6l0.3-1h0.3l0.3,1
			c0.1,0.2,0.1,0.5,0.2,0.7h0c0-0.2,0.1-0.4,0.1-0.7l0.3-1h0.3l-0.6,2h-0.3l-0.3-1c-0.1-0.2-0.1-0.4-0.2-0.7h0
			c0,0.2-0.1,0.5-0.2,0.7l-0.3,1h-0.3l-0.6-2H657.9z"/>
		<path class="st62" d="M660.7-299.8l0.3,1c0.1,0.2,0.1,0.4,0.1,0.7h0c0-0.2,0.1-0.4,0.2-0.6l0.3-1h0.3l0.3,1
			c0.1,0.2,0.1,0.5,0.2,0.7h0c0-0.2,0.1-0.4,0.1-0.7l0.3-1h0.3l-0.6,2h-0.3l-0.3-1c-0.1-0.2-0.1-0.4-0.2-0.7h0
			c0,0.2-0.1,0.5-0.2,0.7l-0.3,1h-0.3l-0.6-2H660.7z"/>
		<path class="st62" d="M663.3-297.8c-0.1,0-0.2-0.1-0.2-0.3c0-0.2,0.1-0.3,0.2-0.3c0.1,0,0.2,0.1,0.2,0.3
			C663.5-297.9,663.4-297.8,663.3-297.8L663.3-297.8z"/>
		<path class="st62" d="M663.8-299.2c0-0.3,0-0.5,0-0.7h0.3l0,0.3h0c0.1-0.3,0.4-0.4,0.7-0.4c0.5,0,0.8,0.4,0.8,1
			c0,0.7-0.4,1.1-0.9,1.1c-0.3,0-0.5-0.1-0.6-0.3h0v1.1h-0.3V-299.2z M664.2-298.6c0,0.1,0,0.1,0,0.2c0.1,0.3,0.3,0.4,0.5,0.4
			c0.4,0,0.6-0.3,0.6-0.8c0-0.4-0.2-0.8-0.6-0.8c-0.2,0-0.5,0.2-0.5,0.5c0,0.1,0,0.1,0,0.2V-298.6z"/>
		<path class="st62" d="M665.9-298.2c0.1,0.1,0.3,0.1,0.5,0.1c0.2,0,0.4-0.1,0.4-0.3c0-0.2-0.1-0.3-0.4-0.4
			c-0.3-0.1-0.5-0.3-0.5-0.6c0-0.3,0.3-0.6,0.7-0.6c0.2,0,0.4,0.1,0.5,0.1l-0.1,0.3c-0.1,0-0.2-0.1-0.4-0.1c-0.2,0-0.3,0.1-0.3,0.3
			c0,0.2,0.1,0.2,0.4,0.3c0.3,0.1,0.5,0.3,0.5,0.6c0,0.4-0.3,0.6-0.7,0.6c-0.2,0-0.4-0.1-0.5-0.1L665.9-298.2z"/>
		<path class="st62" d="M669-300.8v2.5c0,0.2,0,0.4,0,0.5h-0.3l0-0.4h0c-0.1,0.2-0.3,0.4-0.6,0.4c-0.5,0-0.8-0.4-0.8-1
			c0-0.7,0.4-1.1,0.9-1.1c0.3,0,0.5,0.1,0.6,0.3h0v-1.2H669z M668.6-299c0-0.1,0-0.1,0-0.2c-0.1-0.2-0.2-0.4-0.5-0.4
			c-0.4,0-0.6,0.3-0.6,0.8c0,0.4,0.2,0.8,0.6,0.8c0.2,0,0.4-0.2,0.5-0.4c0-0.1,0-0.1,0-0.2V-299z"/>
		<path class="st62" d="M671-298.1c0,0.5-0.1,0.8-0.3,0.9c-0.2,0.2-0.5,0.2-0.7,0.2c-0.2,0-0.5-0.1-0.6-0.2l0.1-0.3
			c0.1,0.1,0.3,0.2,0.6,0.2c0.4,0,0.6-0.2,0.6-0.7v-0.2h0c-0.1,0.2-0.3,0.3-0.6,0.3c-0.5,0-0.8-0.4-0.8-1c0-0.7,0.4-1.1,0.9-1.1
			c0.3,0,0.5,0.2,0.6,0.3h0l0-0.3h0.3c0,0.1,0,0.3,0,0.6V-298.1z M670.7-299c0-0.1,0-0.1,0-0.2c-0.1-0.2-0.2-0.4-0.5-0.4
			c-0.3,0-0.6,0.3-0.6,0.8c0,0.4,0.2,0.7,0.6,0.7c0.2,0,0.4-0.1,0.5-0.4c0-0.1,0-0.1,0-0.2V-299z"/>
		<path class="st62" d="M671.5-299.2c0-0.2,0-0.4,0-0.6h0.3l0,0.4h0c0.1-0.3,0.3-0.4,0.5-0.4c0,0,0.1,0,0.1,0v0.3c0,0-0.1,0-0.1,0
			c-0.2,0-0.4,0.2-0.5,0.5c0,0.1,0,0.1,0,0.2v1.1h-0.3L671.5-299.2z"/>
		<path class="st62" d="M673.9-298.3c0,0.2,0,0.3,0,0.5h-0.3l0-0.3h0c-0.1,0.2-0.3,0.3-0.6,0.3c-0.4,0-0.6-0.3-0.6-0.6
			c0-0.5,0.4-0.8,1.1-0.8v0c0-0.2,0-0.5-0.4-0.5c-0.2,0-0.4,0.1-0.5,0.2l-0.1-0.2c0.2-0.1,0.4-0.2,0.6-0.2c0.6,0,0.7,0.4,0.7,0.8
			V-298.3z M673.6-298.8c-0.4,0-0.8,0.1-0.8,0.5c0,0.2,0.2,0.4,0.3,0.4c0.3,0,0.4-0.2,0.5-0.3c0,0,0-0.1,0-0.1V-298.8z"/>
		<path class="st62" d="M674.4-299.2c0-0.3,0-0.5,0-0.7h0.3l0,0.3h0c0.1-0.3,0.4-0.4,0.7-0.4c0.5,0,0.8,0.4,0.8,1
			c0,0.7-0.4,1.1-0.9,1.1c-0.3,0-0.5-0.1-0.6-0.3h0v1.1h-0.3V-299.2z M674.7-298.6c0,0.1,0,0.1,0,0.2c0.1,0.3,0.3,0.4,0.5,0.4
			c0.4,0,0.6-0.3,0.6-0.8c0-0.4-0.2-0.8-0.6-0.8c-0.2,0-0.5,0.2-0.5,0.5c0,0.1,0,0.1,0,0.2V-298.6z"/>
		<path class="st62" d="M676.5-300.8h0.3v1.3h0c0.1-0.1,0.1-0.2,0.2-0.3c0.1-0.1,0.2-0.1,0.4-0.1c0.3,0,0.7,0.2,0.7,0.9v1.2h-0.3
			v-1.2c0-0.3-0.1-0.6-0.4-0.6c-0.2,0-0.4,0.2-0.5,0.4c0,0.1,0,0.1,0,0.2v1.2h-0.3V-300.8z"/>
		<path class="st62" d="M678.7-300.2c-0.1,0-0.2-0.1-0.2-0.2c0-0.1,0.1-0.2,0.2-0.2c0.1,0,0.2,0.1,0.2,0.2
			C678.9-300.3,678.8-300.2,678.7-300.2L678.7-300.2z M678.5-297.8v-2h0.3v2H678.5z"/>
		<path class="st62" d="M680.6-297.9c-0.1,0-0.3,0.1-0.5,0.1c-0.6,0-1-0.4-1-1c0-0.6,0.4-1.1,1-1.1c0.2,0,0.4,0.1,0.5,0.1l-0.1,0.3
			c-0.1,0-0.2-0.1-0.4-0.1c-0.4,0-0.7,0.3-0.7,0.8c0,0.5,0.3,0.8,0.7,0.8c0.2,0,0.3-0.1,0.4-0.1L680.6-297.9z"/>
		<path class="st62" d="M680.9-298.2c0.1,0.1,0.3,0.1,0.5,0.1c0.2,0,0.4-0.1,0.4-0.3c0-0.2-0.1-0.3-0.4-0.4
			c-0.3-0.1-0.5-0.3-0.5-0.6c0-0.3,0.3-0.6,0.7-0.6c0.2,0,0.4,0.1,0.5,0.1l-0.1,0.3c-0.1,0-0.2-0.1-0.4-0.1c-0.2,0-0.3,0.1-0.3,0.3
			c0,0.2,0.1,0.2,0.4,0.3c0.3,0.1,0.5,0.3,0.5,0.6c0,0.4-0.3,0.6-0.7,0.6c-0.2,0-0.4-0.1-0.5-0.1L680.9-298.2z"/>
		<path class="st62" d="M682.4-297.8c-0.1,0-0.2-0.1-0.2-0.3c0-0.2,0.1-0.3,0.2-0.3c0.1,0,0.2,0.1,0.2,0.3
			C682.7-297.9,682.6-297.8,682.4-297.8L682.4-297.8z"/>
		<path class="st62" d="M684.3-297.9c-0.1,0-0.3,0.1-0.5,0.1c-0.6,0-0.9-0.4-0.9-1c0-0.6,0.4-1.1,1-1.1c0.2,0,0.4,0.1,0.5,0.1
			l-0.1,0.3c-0.1,0-0.2-0.1-0.4-0.1c-0.4,0-0.7,0.3-0.7,0.8c0,0.5,0.3,0.8,0.7,0.8c0.2,0,0.3-0.1,0.4-0.1L684.3-297.9z"/>
		<path class="st62" d="M685.3-297.8c-0.5,0-0.9-0.4-0.9-1c0-0.7,0.4-1.1,0.9-1.1c0.5,0,0.9,0.4,0.9,1
			C686.3-298.1,685.8-297.8,685.3-297.8L685.3-297.8z M685.4-298c0.3,0,0.6-0.3,0.6-0.8c0-0.3-0.2-0.8-0.6-0.8
			c-0.4,0-0.6,0.4-0.6,0.8C684.8-298.4,685-298,685.4-298L685.4-298z"/>
		<path class="st62" d="M686.6-299.3c0-0.2,0-0.4,0-0.6h0.3l0,0.3h0c0.1-0.2,0.3-0.4,0.6-0.4c0.3,0,0.5,0.2,0.5,0.4h0
			c0.1-0.1,0.1-0.2,0.2-0.3c0.1-0.1,0.2-0.1,0.4-0.1c0.3,0,0.6,0.2,0.6,0.9v1.2H689v-1.2c0-0.4-0.1-0.6-0.4-0.6
			c-0.2,0-0.4,0.2-0.4,0.3c0,0.1,0,0.1,0,0.2v1.3h-0.3v-1.2c0-0.3-0.1-0.6-0.4-0.6c-0.2,0-0.4,0.2-0.4,0.4c0,0.1,0,0.1,0,0.2v1.2
			h-0.3V-299.3z"/>
	</g>
</g>
</svg>
