<?xml version="1.0" encoding="utf-8"?>
<!-- Generator: Adobe Illustrator 21.1.0, SVG Export Plug-In . SVG Version: 6.00 Build 0)  -->
<svg version="1.1" xmlns="http://www.w3.org/2000/svg" xmlns:xlink="http://www.w3.org/1999/xlink" x="0px" y="0px"
	 viewBox="0 0 720 540" style="enable-background:new 0 0 720 540;" xml:space="preserve">
<style type="text/css">
	.st0{fill:#6B0B6B;}
	.st1{fill:#5C0F70;}
	.st2{fill:none;}
	.st3{fill:url(#SVGID_1_);}
	.st4{fill:url(#SVGID_2_);}
	.st5{fill:url(#SVGID_3_);}
	.st6{fill:url(#SVGID_4_);}
	.st7{fill:url(#SVGID_5_);}
	.st8{fill:url(#SVGID_6_);}
	.st9{fill:#38A662;}
	.st10{fill:url(#SVGID_7_);}
	.st11{fill:url(#SVGID_8_);}
	.st12{fill:url(#SVGID_9_);}
	.st13{fill:url(#SVGID_10_);}
	.st14{fill:url(#SVGID_11_);}
	.st15{fill:url(#SVGID_12_);}
	.st16{fill:url(#SVGID_13_);}
	.st17{fill:url(#SVGID_14_);}
	.st18{fill:url(#SVGID_15_);}
	.st19{fill:url(#SVGID_16_);}
	.st20{fill:url(#SVGID_17_);}
	.st21{fill:url(#SVGID_18_);}
	.st22{fill:url(#SVGID_19_);}
	.st23{fill:url(#SVGID_20_);}
	.st24{fill:url(#SVGID_21_);}
	.st25{fill:url(#SVGID_22_);}
	.st26{fill:url(#SVGID_23_);}
	.st27{fill:url(#SVGID_24_);}
	.st28{fill:url(#SVGID_25_);}
	.st29{fill:#399583;}
	.st30{fill:url(#SVGID_26_);}
	.st31{fill:url(#SVGID_27_);}
	.st32{fill:url(#SVGID_28_);}
	.st33{fill:url(#SVGID_29_);}
	.st34{fill:url(#SVGID_30_);}
	.st35{fill:url(#SVGID_31_);}
	.st36{fill:url(#SVGID_32_);}
	.st37{fill:url(#SVGID_33_);}
	.st38{fill:url(#SVGID_34_);}
	.st39{fill:url(#SVGID_35_);}
	.st40{fill:url(#SVGID_36_);}
	.st41{fill:url(#SVGID_37_);}
	.st42{fill:url(#SVGID_38_);}
	.st43{fill:url(#SVGID_39_);}
	.st44{fill:url(#SVGID_40_);}
	.st45{fill:url(#SVGID_41_);}
	.st46{fill:url(#SVGID_42_);}
	.st47{fill:url(#SVGID_43_);}
	.st48{fill:url(#SVGID_44_);}
	.st49{fill:url(#SVGID_45_);}
	.st50{fill:url(#SVGID_46_);}
	.st51{fill:url(#SVGID_47_);}
	.st52{fill:url(#SVGID_48_);}
	.st53{fill:url(#SVGID_49_);}
	.st54{fill:url(#SVGID_50_);}
	.st55{fill:url(#SVGID_51_);}
	.st56{fill:url(#SVGID_52_);}
	.st57{fill:url(#SVGID_53_);}
	.st58{fill:url(#SVGID_54_);}
	.st59{fill:url(#SVGID_55_);}
	.st60{fill:url(#SVGID_56_);}
	.st61{fill:url(#SVGID_57_);}
	.st62{display:none;}
	.st63{display:inline;opacity:0.3;}
	.st64{fill:#FFFFFF;}
</style>
<g id="Layer_3">
</g>
<g id="Layer_2">
</g>
<g id="Layer_4">
	<polygon class="st0" points="-51.2,820.4 37.3,900.3 38.9,907.5 -96.3,835.8 	"/>
	<polygon class="st1" points="20,825.9 37.3,900.3 -51.2,820.4 	"/>
	<g>
		
			<image style="overflow:visible;" width="4000" height="3000" xlink:href="3C4105F8A68BC20C.jpg"  transform="matrix(0.18 0 0 0.18 0 0)">
		</image>
		<polygon class="st2" points="498.2,377.9 623.2,405.9 465.9,370.6 		"/>
		<linearGradient id="SVGID_1_" gradientUnits="userSpaceOnUse" x1="560.7308" y1="472.4726" x2="720" y2="472.4726">
			<stop  offset="0.1775" style="stop-color:#0071BC"/>
			<stop  offset="1" style="stop-color:#FFFFFF"/>
		</linearGradient>
		<polygon class="st3" points="560.7,539.1 720,539.1 720,499.4 623.2,405.9 		"/>
		<linearGradient id="SVGID_2_" gradientUnits="userSpaceOnUse" x1="623.209" y1="452.6476" x2="720" y2="452.6476">
			<stop  offset="0" style="stop-color:#CCE0F4"/>
			<stop  offset="6.405089e-02" style="stop-color:#C3DCF2"/>
			<stop  offset="0.1706" style="stop-color:#A9D2EE"/>
			<stop  offset="0.3066" style="stop-color:#80C2E7"/>
			<stop  offset="0.4649" style="stop-color:#47ACDE"/>
			<stop  offset="0.5674" style="stop-color:#1E9CD7"/>
			<stop  offset="0.8652" style="stop-color:#0075BE"/>
			<stop  offset="0.9944" style="stop-color:#005B97"/>
		</linearGradient>
		<polygon class="st4" points="720,499.4 720,436.4 623.2,405.9 		"/>
		<linearGradient id="SVGID_3_" gradientUnits="userSpaceOnUse" x1="623.209" y1="398.5751" x2="720" y2="398.5751">
			<stop  offset="0" style="stop-color:#FFFFFF"/>
			<stop  offset="8.435369e-02" style="stop-color:#D5ECFD"/>
			<stop  offset="0.1792" style="stop-color:#ADDAFB"/>
			<stop  offset="0.2805" style="stop-color:#8BCBF9"/>
			<stop  offset="0.3878" style="stop-color:#6FBFF8"/>
			<stop  offset="0.5032" style="stop-color:#5AB5F6"/>
			<stop  offset="0.6305" style="stop-color:#4BAEF6"/>
			<stop  offset="0.7791" style="stop-color:#42AAF5"/>
			<stop  offset="1" style="stop-color:#3FA9F5"/>
		</linearGradient>
		<polygon class="st5" points="623.2,405.9 720,436.4 720,360.7 		"/>
		<linearGradient id="SVGID_4_" gradientUnits="userSpaceOnUse" x1="623.209" y1="318.8947" x2="720" y2="318.8947">
			<stop  offset="0" style="stop-color:#CCE0F4"/>
			<stop  offset="6.405089e-02" style="stop-color:#C3DCF2"/>
			<stop  offset="0.1706" style="stop-color:#A9D2EE"/>
			<stop  offset="0.3066" style="stop-color:#80C2E7"/>
			<stop  offset="0.4649" style="stop-color:#47ACDE"/>
			<stop  offset="0.5674" style="stop-color:#1E9CD7"/>
			<stop  offset="0.8652" style="stop-color:#0075BE"/>
			<stop  offset="0.9944" style="stop-color:#005B97"/>
		</linearGradient>
		<polygon class="st6" points="623.2,405.9 720,360.7 720,330.1 674.4,231.9 		"/>
		<linearGradient id="SVGID_5_" gradientUnits="userSpaceOnUse" x1="674.4414" y1="276.2082" x2="720" y2="276.2082">
			<stop  offset="0" style="stop-color:#CCE0F4"/>
			<stop  offset="6.405089e-02" style="stop-color:#C3DCF2"/>
			<stop  offset="0.1706" style="stop-color:#A9D2EE"/>
			<stop  offset="0.3066" style="stop-color:#80C2E7"/>
			<stop  offset="0.4649" style="stop-color:#47ACDE"/>
			<stop  offset="0.5674" style="stop-color:#1E9CD7"/>
			<stop  offset="0.8652" style="stop-color:#0075BE"/>
			<stop  offset="0.9944" style="stop-color:#005B97"/>
		</linearGradient>
		<polygon class="st7" points="720,330.1 720,222.3 674.4,231.9 		"/>
		<linearGradient id="SVGID_6_" gradientUnits="userSpaceOnUse" x1="667.209" y1="197.8059" x2="720" y2="197.8059">
			<stop  offset="0" style="stop-color:#FFFFFF"/>
			<stop  offset="8.435369e-02" style="stop-color:#D5ECFD"/>
			<stop  offset="0.1792" style="stop-color:#ADDAFB"/>
			<stop  offset="0.2805" style="stop-color:#8BCBF9"/>
			<stop  offset="0.3878" style="stop-color:#6FBFF8"/>
			<stop  offset="0.5032" style="stop-color:#5AB5F6"/>
			<stop  offset="0.6305" style="stop-color:#4BAEF6"/>
			<stop  offset="0.7791" style="stop-color:#42AAF5"/>
			<stop  offset="1" style="stop-color:#3FA9F5"/>
		</linearGradient>
		<polygon class="st8" points="674.4,231.9 720,222.3 720,187.8 667.2,163.7 		"/>
		<polygon class="st9" points="720,187.8 720,108.8 667.2,163.7 		"/>
		<linearGradient id="SVGID_7_" gradientUnits="userSpaceOnUse" x1="667.209" y1="113.3857" x2="720" y2="113.3857">
			<stop  offset="0" style="stop-color:#CCE0F4"/>
			<stop  offset="6.405089e-02" style="stop-color:#C3DCF2"/>
			<stop  offset="0.1706" style="stop-color:#A9D2EE"/>
			<stop  offset="0.3066" style="stop-color:#80C2E7"/>
			<stop  offset="0.4649" style="stop-color:#47ACDE"/>
			<stop  offset="0.5674" style="stop-color:#1E9CD7"/>
			<stop  offset="0.8652" style="stop-color:#0075BE"/>
			<stop  offset="0.9944" style="stop-color:#005B97"/>
		</linearGradient>
		<polygon class="st10" points="667.2,163.7 720,108.8 720,97.2 685.9,63.1 		"/>
		<linearGradient id="SVGID_8_" gradientUnits="userSpaceOnUse" x1="685.8936" y1="74.8611" x2="720" y2="74.8611">
			<stop  offset="0" style="stop-color:#CCE0F4"/>
			<stop  offset="6.405089e-02" style="stop-color:#C3DCF2"/>
			<stop  offset="0.1706" style="stop-color:#A9D2EE"/>
			<stop  offset="0.3066" style="stop-color:#80C2E7"/>
			<stop  offset="0.4649" style="stop-color:#47ACDE"/>
			<stop  offset="0.5674" style="stop-color:#1E9CD7"/>
			<stop  offset="0.8652" style="stop-color:#0075BE"/>
			<stop  offset="0.9944" style="stop-color:#005B97"/>
		</linearGradient>
		<polygon class="st11" points="720,97.2 720,52.5 685.9,63.1 		"/>
		<linearGradient id="SVGID_9_" gradientUnits="userSpaceOnUse" x1="685.8936" y1="31.5376" x2="720" y2="31.5376">
			<stop  offset="0" style="stop-color:#FFFFFF"/>
			<stop  offset="7.731539e-02" style="stop-color:#DCF3E9"/>
			<stop  offset="0.2015" style="stop-color:#ABE3CA"/>
			<stop  offset="0.3289" style="stop-color:#81D5AF"/>
			<stop  offset="0.4575" style="stop-color:#5FC99A"/>
			<stop  offset="0.5876" style="stop-color:#44C089"/>
			<stop  offset="0.7198" style="stop-color:#31BA7D"/>
			<stop  offset="0.8555" style="stop-color:#26B675"/>
			<stop  offset="1" style="stop-color:#22B573"/>
		</linearGradient>
		<polygon class="st12" points="720,52.5 720,0 697.5,0 685.9,63.1 		"/>
		<linearGradient id="SVGID_10_" gradientUnits="userSpaceOnUse" x1="594.2783" y1="50.0127" x2="697.4615" y2="50.0127">
			<stop  offset="0" style="stop-color:#FFFFFF"/>
			<stop  offset="8.435369e-02" style="stop-color:#D5ECFD"/>
			<stop  offset="0.1792" style="stop-color:#ADDAFB"/>
			<stop  offset="0.2805" style="stop-color:#8BCBF9"/>
			<stop  offset="0.3878" style="stop-color:#6FBFF8"/>
			<stop  offset="0.5032" style="stop-color:#5AB5F6"/>
			<stop  offset="0.6305" style="stop-color:#4BAEF6"/>
			<stop  offset="0.7791" style="stop-color:#42AAF5"/>
			<stop  offset="1" style="stop-color:#3FA9F5"/>
		</linearGradient>
		<polygon class="st13" points="685.9,63.1 697.5,0 672.3,0 594.3,100 		"/>
		<linearGradient id="SVGID_11_" gradientUnits="userSpaceOnUse" x1="594.2783" y1="81.5503" x2="685.8936" y2="81.5503">
			<stop  offset="0" style="stop-color:#CCE0F4"/>
			<stop  offset="6.405089e-02" style="stop-color:#C3DCF2"/>
			<stop  offset="0.1706" style="stop-color:#A9D2EE"/>
			<stop  offset="0.3066" style="stop-color:#80C2E7"/>
			<stop  offset="0.4649" style="stop-color:#47ACDE"/>
			<stop  offset="0.5674" style="stop-color:#1E9CD7"/>
			<stop  offset="0.8652" style="stop-color:#0075BE"/>
			<stop  offset="0.9944" style="stop-color:#005B97"/>
		</linearGradient>
		<polygon class="st14" points="685.9,63.1 594.3,100 660.6,87 		"/>
		<linearGradient id="SVGID_12_" gradientUnits="userSpaceOnUse" x1="660.5801" y1="113.3857" x2="685.8936" y2="113.3857">
			<stop  offset="0" style="stop-color:#FFFFFF"/>
			<stop  offset="8.435369e-02" style="stop-color:#D5ECFD"/>
			<stop  offset="0.1792" style="stop-color:#ADDAFB"/>
			<stop  offset="0.2805" style="stop-color:#8BCBF9"/>
			<stop  offset="0.3878" style="stop-color:#6FBFF8"/>
			<stop  offset="0.5032" style="stop-color:#5AB5F6"/>
			<stop  offset="0.6305" style="stop-color:#4BAEF6"/>
			<stop  offset="0.7791" style="stop-color:#42AAF5"/>
			<stop  offset="1" style="stop-color:#3FA9F5"/>
		</linearGradient>
		<polygon class="st15" points="667.2,163.7 685.9,63.1 660.6,87 		"/>
		<linearGradient id="SVGID_13_" gradientUnits="userSpaceOnUse" x1="594.2783" y1="125.3237" x2="667.209" y2="125.3237">
			<stop  offset="0" style="stop-color:#FFFFFF"/>
			<stop  offset="8.435369e-02" style="stop-color:#D5ECFD"/>
			<stop  offset="0.1792" style="stop-color:#ADDAFB"/>
			<stop  offset="0.2805" style="stop-color:#8BCBF9"/>
			<stop  offset="0.3878" style="stop-color:#6FBFF8"/>
			<stop  offset="0.5032" style="stop-color:#5AB5F6"/>
			<stop  offset="0.6305" style="stop-color:#4BAEF6"/>
			<stop  offset="0.7791" style="stop-color:#42AAF5"/>
			<stop  offset="1" style="stop-color:#3FA9F5"/>
		</linearGradient>
		<polygon class="st16" points="660.6,87 594.3,100 667.2,163.7 		"/>
		<linearGradient id="SVGID_14_" gradientUnits="userSpaceOnUse" x1="587.6484" y1="151.759" x2="667.209" y2="151.759">
			<stop  offset="0" style="stop-color:#CCE0F4"/>
			<stop  offset="6.405089e-02" style="stop-color:#C3DCF2"/>
			<stop  offset="0.1706" style="stop-color:#A9D2EE"/>
			<stop  offset="0.3066" style="stop-color:#80C2E7"/>
			<stop  offset="0.4649" style="stop-color:#47ACDE"/>
			<stop  offset="0.5674" style="stop-color:#1E9CD7"/>
			<stop  offset="0.8652" style="stop-color:#0075BE"/>
			<stop  offset="0.9944" style="stop-color:#005B97"/>
		</linearGradient>
		<polygon class="st17" points="667.2,163.7 594.3,100 587.6,203.5 		"/>
		<linearGradient id="SVGID_15_" gradientUnits="userSpaceOnUse" x1="587.6484" y1="197.8059" x2="674.4414" y2="197.8059">
			<stop  offset="0" style="stop-color:#FFFFFF"/>
			<stop  offset="7.731539e-02" style="stop-color:#DCF3E9"/>
			<stop  offset="0.2015" style="stop-color:#ABE3CA"/>
			<stop  offset="0.3289" style="stop-color:#81D5AF"/>
			<stop  offset="0.4575" style="stop-color:#5FC99A"/>
			<stop  offset="0.5876" style="stop-color:#44C089"/>
			<stop  offset="0.7198" style="stop-color:#31BA7D"/>
			<stop  offset="0.8555" style="stop-color:#26B675"/>
			<stop  offset="1" style="stop-color:#22B573"/>
		</linearGradient>
		<polygon class="st18" points="674.4,231.9 667.2,163.7 587.6,203.5 		"/>
		<linearGradient id="SVGID_16_" gradientUnits="userSpaceOnUse" x1="521.9502" y1="241.5818" x2="674.4414" y2="241.5818">
			<stop  offset="0" style="stop-color:#FFFFFF"/>
			<stop  offset="7.731539e-02" style="stop-color:#DCF3E9"/>
			<stop  offset="0.2015" style="stop-color:#ABE3CA"/>
			<stop  offset="0.3289" style="stop-color:#81D5AF"/>
			<stop  offset="0.4575" style="stop-color:#5FC99A"/>
			<stop  offset="0.5876" style="stop-color:#44C089"/>
			<stop  offset="0.7198" style="stop-color:#31BA7D"/>
			<stop  offset="0.8555" style="stop-color:#26B675"/>
			<stop  offset="1" style="stop-color:#22B573"/>
		</linearGradient>
		<polygon class="st19" points="522,279.7 674.4,231.9 587.6,203.5 		"/>
		<linearGradient id="SVGID_17_" gradientUnits="userSpaceOnUse" x1="521.9502" y1="318.8947" x2="674.4414" y2="318.8947">
			<stop  offset="0" style="stop-color:#FFFFFF"/>
			<stop  offset="8.435369e-02" style="stop-color:#D5ECFD"/>
			<stop  offset="0.1792" style="stop-color:#ADDAFB"/>
			<stop  offset="0.2805" style="stop-color:#8BCBF9"/>
			<stop  offset="0.3878" style="stop-color:#6FBFF8"/>
			<stop  offset="0.5032" style="stop-color:#5AB5F6"/>
			<stop  offset="0.6305" style="stop-color:#4BAEF6"/>
			<stop  offset="0.7791" style="stop-color:#42AAF5"/>
			<stop  offset="1" style="stop-color:#3FA9F5"/>
		</linearGradient>
		<polygon class="st20" points="522,279.7 623.2,405.9 674.4,231.9 		"/>
		<linearGradient id="SVGID_18_" gradientUnits="userSpaceOnUse" x1="465.8965" y1="342.7724" x2="623.209" y2="342.7724">
			<stop  offset="0" style="stop-color:#FFFFFF"/>
			<stop  offset="8.435369e-02" style="stop-color:#D5ECFD"/>
			<stop  offset="0.1792" style="stop-color:#ADDAFB"/>
			<stop  offset="0.2805" style="stop-color:#8BCBF9"/>
			<stop  offset="0.3878" style="stop-color:#6FBFF8"/>
			<stop  offset="0.5032" style="stop-color:#5AB5F6"/>
			<stop  offset="0.6305" style="stop-color:#4BAEF6"/>
			<stop  offset="0.7791" style="stop-color:#42AAF5"/>
			<stop  offset="1" style="stop-color:#3FA9F5"/>
		</linearGradient>
		<polygon class="st21" points="465.9,370.6 623.2,405.9 522,279.7 		"/>
		<linearGradient id="SVGID_19_" gradientUnits="userSpaceOnUse" x1="423.9021" y1="472.4726" x2="623.209" y2="472.4726">
			<stop  offset="0" style="stop-color:#CCE0F4"/>
			<stop  offset="6.405089e-02" style="stop-color:#C3DCF2"/>
			<stop  offset="0.1706" style="stop-color:#A9D2EE"/>
			<stop  offset="0.3066" style="stop-color:#80C2E7"/>
			<stop  offset="0.4649" style="stop-color:#47ACDE"/>
			<stop  offset="0.5674" style="stop-color:#1E9CD7"/>
			<stop  offset="0.8652" style="stop-color:#0075BE"/>
			<stop  offset="0.9944" style="stop-color:#005B97"/>
		</linearGradient>
		<polygon class="st22" points="423.9,539.1 560.7,539.1 623.2,405.9 		"/>
		<linearGradient id="SVGID_20_" gradientUnits="userSpaceOnUse" x1="407.6012" y1="458.4736" x2="623.209" y2="458.4736">
			<stop  offset="0.1775" style="stop-color:#0071BC"/>
			<stop  offset="1" style="stop-color:#FFFFFF"/>
		</linearGradient>
		<polygon class="st23" points="498.2,377.9 407.6,539.1 423.9,539.1 623.2,405.9 		"/>
		<linearGradient id="SVGID_21_" gradientUnits="userSpaceOnUse" x1="404.1821" y1="454.8486" x2="498.2393" y2="454.8486">
			<stop  offset="0" style="stop-color:#CCE0F4"/>
			<stop  offset="6.405089e-02" style="stop-color:#C3DCF2"/>
			<stop  offset="0.1706" style="stop-color:#A9D2EE"/>
			<stop  offset="0.3066" style="stop-color:#80C2E7"/>
			<stop  offset="0.4649" style="stop-color:#47ACDE"/>
			<stop  offset="0.5674" style="stop-color:#1E9CD7"/>
			<stop  offset="0.8652" style="stop-color:#0075BE"/>
			<stop  offset="0.9944" style="stop-color:#005B97"/>
		</linearGradient>
		<polygon class="st24" points="465.9,370.6 404.2,539.1 407.6,539.1 498.2,377.9 		"/>
		<linearGradient id="SVGID_22_" gradientUnits="userSpaceOnUse" x1="351.6878" y1="454.8486" x2="465.8965" y2="454.8486">
			<stop  offset="0" style="stop-color:#FFFFFF"/>
			<stop  offset="8.435369e-02" style="stop-color:#D5ECFD"/>
			<stop  offset="0.1792" style="stop-color:#ADDAFB"/>
			<stop  offset="0.2805" style="stop-color:#8BCBF9"/>
			<stop  offset="0.3878" style="stop-color:#6FBFF8"/>
			<stop  offset="0.5032" style="stop-color:#5AB5F6"/>
			<stop  offset="0.6305" style="stop-color:#4BAEF6"/>
			<stop  offset="0.7791" style="stop-color:#42AAF5"/>
			<stop  offset="1" style="stop-color:#3FA9F5"/>
		</linearGradient>
		<polygon class="st25" points="351.7,539.1 404.2,539.1 465.9,370.6 		"/>
		<linearGradient id="SVGID_23_" gradientUnits="userSpaceOnUse" x1="231.4331" y1="454.8486" x2="465.8965" y2="454.8486">
			<stop  offset="0" style="stop-color:#FFFFFF"/>
			<stop  offset="8.435369e-02" style="stop-color:#D5ECFD"/>
			<stop  offset="0.1792" style="stop-color:#ADDAFB"/>
			<stop  offset="0.2805" style="stop-color:#8BCBF9"/>
			<stop  offset="0.3878" style="stop-color:#6FBFF8"/>
			<stop  offset="0.5032" style="stop-color:#5AB5F6"/>
			<stop  offset="0.6305" style="stop-color:#4BAEF6"/>
			<stop  offset="0.7791" style="stop-color:#42AAF5"/>
			<stop  offset="1" style="stop-color:#3FA9F5"/>
		</linearGradient>
		<polygon class="st26" points="231.4,423.5 331.7,539.1 351.7,539.1 465.9,370.6 		"/>
		<linearGradient id="SVGID_24_" gradientUnits="userSpaceOnUse" x1="231.4331" y1="363.8032" x2="465.8965" y2="363.8032">
			<stop  offset="0" style="stop-color:#FFFFFF"/>
			<stop  offset="7.731539e-02" style="stop-color:#DCF3E9"/>
			<stop  offset="0.2015" style="stop-color:#ABE3CA"/>
			<stop  offset="0.3289" style="stop-color:#81D5AF"/>
			<stop  offset="0.4575" style="stop-color:#5FC99A"/>
			<stop  offset="0.5876" style="stop-color:#44C089"/>
			<stop  offset="0.7198" style="stop-color:#31BA7D"/>
			<stop  offset="0.8555" style="stop-color:#26B675"/>
			<stop  offset="1" style="stop-color:#22B573"/>
		</linearGradient>
		<polygon class="st27" points="231.4,423.5 465.9,370.6 308.6,304.1 		"/>
		<linearGradient id="SVGID_25_" gradientUnits="userSpaceOnUse" x1="308.583" y1="320.0295" x2="465.8965" y2="320.0295">
			<stop  offset="0" style="stop-color:#FFFFFF"/>
			<stop  offset="7.731539e-02" style="stop-color:#DCF3E9"/>
			<stop  offset="0.2015" style="stop-color:#ABE3CA"/>
			<stop  offset="0.3289" style="stop-color:#81D5AF"/>
			<stop  offset="0.4575" style="stop-color:#5FC99A"/>
			<stop  offset="0.5876" style="stop-color:#44C089"/>
			<stop  offset="0.7198" style="stop-color:#31BA7D"/>
			<stop  offset="0.8555" style="stop-color:#26B675"/>
			<stop  offset="1" style="stop-color:#22B573"/>
		</linearGradient>
		<polygon class="st28" points="308.6,304.1 465.9,370.6 446,269.4 		"/>
		<polygon class="st29" points="446,269.4 465.9,370.6 522,279.7 		"/>
		<linearGradient id="SVGID_26_" gradientUnits="userSpaceOnUse" x1="418.8828" y1="224.524" x2="521.9502" y2="224.524">
			<stop  offset="0" style="stop-color:#FFFFFF"/>
			<stop  offset="7.731539e-02" style="stop-color:#DCF3E9"/>
			<stop  offset="0.2015" style="stop-color:#ABE3CA"/>
			<stop  offset="0.3289" style="stop-color:#81D5AF"/>
			<stop  offset="0.4575" style="stop-color:#5FC99A"/>
			<stop  offset="0.5876" style="stop-color:#44C089"/>
			<stop  offset="0.7198" style="stop-color:#31BA7D"/>
			<stop  offset="0.8555" style="stop-color:#26B675"/>
			<stop  offset="1" style="stop-color:#22B573"/>
		</linearGradient>
		<polygon class="st30" points="522,279.7 418.9,169.4 446,269.4 		"/>
		<linearGradient id="SVGID_27_" gradientUnits="userSpaceOnUse" x1="418.8828" y1="224.524" x2="587.6484" y2="224.524">
			<stop  offset="0" style="stop-color:#FFFFFF"/>
			<stop  offset="7.731539e-02" style="stop-color:#DCF3E9"/>
			<stop  offset="0.2015" style="stop-color:#ABE3CA"/>
			<stop  offset="0.3289" style="stop-color:#81D5AF"/>
			<stop  offset="0.4575" style="stop-color:#5FC99A"/>
			<stop  offset="0.5876" style="stop-color:#44C089"/>
			<stop  offset="0.7198" style="stop-color:#31BA7D"/>
			<stop  offset="0.8555" style="stop-color:#26B675"/>
			<stop  offset="1" style="stop-color:#22B573"/>
		</linearGradient>
		<polygon class="st31" points="587.6,203.5 418.9,169.4 522,279.7 		"/>
		<linearGradient id="SVGID_28_" gradientUnits="userSpaceOnUse" x1="418.8828" y1="84.6885" x2="594.2783" y2="84.6885">
			<stop  offset="0" style="stop-color:#FFFFFF"/>
			<stop  offset="8.435369e-02" style="stop-color:#D5ECFD"/>
			<stop  offset="0.1792" style="stop-color:#ADDAFB"/>
			<stop  offset="0.2805" style="stop-color:#8BCBF9"/>
			<stop  offset="0.3878" style="stop-color:#6FBFF8"/>
			<stop  offset="0.5032" style="stop-color:#5AB5F6"/>
			<stop  offset="0.6305" style="stop-color:#4BAEF6"/>
			<stop  offset="0.7791" style="stop-color:#42AAF5"/>
			<stop  offset="1" style="stop-color:#3FA9F5"/>
		</linearGradient>
		<polygon class="st32" points="594.3,100 511.9,0 448.7,0 418.9,169.4 		"/>
		<linearGradient id="SVGID_29_" gradientUnits="userSpaceOnUse" x1="418.8828" y1="151.759" x2="594.2783" y2="151.759">
			<stop  offset="0.1775" style="stop-color:#0071BC"/>
			<stop  offset="1" style="stop-color:#FFFFFF"/>
		</linearGradient>
		<polygon class="st33" points="594.3,100 418.9,169.4 587.6,203.5 		"/>
		<linearGradient id="SVGID_30_" gradientUnits="userSpaceOnUse" x1="594.2783" y1="50.0127" x2="672.3333" y2="50.0127">
			<stop  offset="0.1775" style="stop-color:#0071BC"/>
			<stop  offset="1" style="stop-color:#FFFFFF"/>
		</linearGradient>
		<polygon class="st34" points="672.3,0 620.5,0 594.3,100 		"/>
		<linearGradient id="SVGID_31_" gradientUnits="userSpaceOnUse" x1="511.8784" y1="50.0127" x2="620.4789" y2="50.0127">
			<stop  offset="0" style="stop-color:#FFFFFF"/>
			<stop  offset="7.731539e-02" style="stop-color:#DCF3E9"/>
			<stop  offset="0.2015" style="stop-color:#ABE3CA"/>
			<stop  offset="0.3289" style="stop-color:#81D5AF"/>
			<stop  offset="0.4575" style="stop-color:#5FC99A"/>
			<stop  offset="0.5876" style="stop-color:#44C089"/>
			<stop  offset="0.7198" style="stop-color:#31BA7D"/>
			<stop  offset="0.8555" style="stop-color:#26B675"/>
			<stop  offset="1" style="stop-color:#22B573"/>
		</linearGradient>
		<polygon class="st35" points="620.5,0 511.9,0 594.3,100 		"/>
		<linearGradient id="SVGID_32_" gradientUnits="userSpaceOnUse" x1="241.0669" y1="84.6885" x2="448.74" y2="84.6885">
			<stop  offset="0" style="stop-color:#FFFFFF"/>
			<stop  offset="8.435369e-02" style="stop-color:#D5ECFD"/>
			<stop  offset="0.1792" style="stop-color:#ADDAFB"/>
			<stop  offset="0.2805" style="stop-color:#8BCBF9"/>
			<stop  offset="0.3878" style="stop-color:#6FBFF8"/>
			<stop  offset="0.5032" style="stop-color:#5AB5F6"/>
			<stop  offset="0.6305" style="stop-color:#4BAEF6"/>
			<stop  offset="0.7791" style="stop-color:#42AAF5"/>
			<stop  offset="1" style="stop-color:#3FA9F5"/>
		</linearGradient>
		<polygon class="st36" points="418.9,169.4 448.7,0 366.5,0 241.1,84.9 		"/>
		<linearGradient id="SVGID_33_" gradientUnits="userSpaceOnUse" x1="241.0669" y1="175.3242" x2="418.8828" y2="175.3242">
			<stop  offset="0" style="stop-color:#FFFFFF"/>
			<stop  offset="8.435369e-02" style="stop-color:#D5ECFD"/>
			<stop  offset="0.1792" style="stop-color:#ADDAFB"/>
			<stop  offset="0.2805" style="stop-color:#8BCBF9"/>
			<stop  offset="0.3878" style="stop-color:#6FBFF8"/>
			<stop  offset="0.5032" style="stop-color:#5AB5F6"/>
			<stop  offset="0.6305" style="stop-color:#4BAEF6"/>
			<stop  offset="0.7791" style="stop-color:#42AAF5"/>
			<stop  offset="1" style="stop-color:#3FA9F5"/>
		</linearGradient>
		<polygon class="st37" points="418.9,169.4 241.1,84.9 323.4,265.8 		"/>
		<linearGradient id="SVGID_34_" gradientUnits="userSpaceOnUse" x1="323.4404" y1="219.4051" x2="446.0059" y2="219.4051">
			<stop  offset="0" style="stop-color:#FFFFFF"/>
			<stop  offset="8.435369e-02" style="stop-color:#D5ECFD"/>
			<stop  offset="0.1792" style="stop-color:#ADDAFB"/>
			<stop  offset="0.2805" style="stop-color:#8BCBF9"/>
			<stop  offset="0.3878" style="stop-color:#6FBFF8"/>
			<stop  offset="0.5032" style="stop-color:#5AB5F6"/>
			<stop  offset="0.6305" style="stop-color:#4BAEF6"/>
			<stop  offset="0.7791" style="stop-color:#42AAF5"/>
			<stop  offset="1" style="stop-color:#3FA9F5"/>
		</linearGradient>
		<polygon class="st38" points="446,269.4 418.9,169.4 323.4,265.8 		"/>
		<linearGradient id="SVGID_35_" gradientUnits="userSpaceOnUse" x1="308.583" y1="284.936" x2="446.0059" y2="284.936">
			<stop  offset="0" style="stop-color:#CCE0F4"/>
			<stop  offset="6.405089e-02" style="stop-color:#C3DCF2"/>
			<stop  offset="0.1706" style="stop-color:#A9D2EE"/>
			<stop  offset="0.3066" style="stop-color:#80C2E7"/>
			<stop  offset="0.4649" style="stop-color:#47ACDE"/>
			<stop  offset="0.5674" style="stop-color:#1E9CD7"/>
			<stop  offset="0.8652" style="stop-color:#0075BE"/>
			<stop  offset="0.9944" style="stop-color:#005B97"/>
		</linearGradient>
		<polygon class="st39" points="308.6,304.1 446,269.4 323.4,265.8 		"/>
		<linearGradient id="SVGID_36_" gradientUnits="userSpaceOnUse" x1="187.689" y1="274.3693" x2="323.4404" y2="274.3693">
			<stop  offset="0" style="stop-color:#CCE0F4"/>
			<stop  offset="6.405089e-02" style="stop-color:#C3DCF2"/>
			<stop  offset="0.1706" style="stop-color:#A9D2EE"/>
			<stop  offset="0.3066" style="stop-color:#80C2E7"/>
			<stop  offset="0.4649" style="stop-color:#47ACDE"/>
			<stop  offset="0.5674" style="stop-color:#1E9CD7"/>
			<stop  offset="0.8652" style="stop-color:#0075BE"/>
			<stop  offset="0.9944" style="stop-color:#005B97"/>
		</linearGradient>
		<polygon class="st40" points="187.7,244.6 308.6,304.1 323.4,265.8 		"/>
		<linearGradient id="SVGID_37_" gradientUnits="userSpaceOnUse" x1="187.689" y1="175.3242" x2="323.4404" y2="175.3242">
			<stop  offset="0" style="stop-color:#FFFFFF"/>
			<stop  offset="8.435369e-02" style="stop-color:#D5ECFD"/>
			<stop  offset="0.1792" style="stop-color:#ADDAFB"/>
			<stop  offset="0.2805" style="stop-color:#8BCBF9"/>
			<stop  offset="0.3878" style="stop-color:#6FBFF8"/>
			<stop  offset="0.5032" style="stop-color:#5AB5F6"/>
			<stop  offset="0.6305" style="stop-color:#4BAEF6"/>
			<stop  offset="0.7791" style="stop-color:#42AAF5"/>
			<stop  offset="1" style="stop-color:#3FA9F5"/>
		</linearGradient>
		<polygon class="st41" points="323.4,265.8 241.1,84.9 187.7,244.6 		"/>
		<linearGradient id="SVGID_38_" gradientUnits="userSpaceOnUse" x1="80.2739" y1="164.7575" x2="241.0669" y2="164.7575">
			<stop  offset="0.1775" style="stop-color:#0071BC"/>
			<stop  offset="1" style="stop-color:#FFFFFF"/>
		</linearGradient>
		<polygon class="st42" points="241.1,84.9 80.3,197.4 187.7,244.6 		"/>
		<linearGradient id="SVGID_39_" gradientUnits="userSpaceOnUse" x1="61.8223" y1="141.1384" x2="241.0669" y2="141.1384">
			<stop  offset="0" style="stop-color:#FFFFFF"/>
			<stop  offset="8.435369e-02" style="stop-color:#D5ECFD"/>
			<stop  offset="0.1792" style="stop-color:#ADDAFB"/>
			<stop  offset="0.2805" style="stop-color:#8BCBF9"/>
			<stop  offset="0.3878" style="stop-color:#6FBFF8"/>
			<stop  offset="0.5032" style="stop-color:#5AB5F6"/>
			<stop  offset="0.6305" style="stop-color:#4BAEF6"/>
			<stop  offset="0.7791" style="stop-color:#42AAF5"/>
			<stop  offset="1" style="stop-color:#3FA9F5"/>
		</linearGradient>
		<polygon class="st43" points="61.8,94.8 80.3,197.4 241.1,84.9 		"/>
		<linearGradient id="SVGID_40_" gradientUnits="userSpaceOnUse" x1="61.8223" y1="47.4157" x2="241.0669" y2="47.4157">
			<stop  offset="0" style="stop-color:#FFFFFF"/>
			<stop  offset="8.435369e-02" style="stop-color:#D5ECFD"/>
			<stop  offset="0.1792" style="stop-color:#ADDAFB"/>
			<stop  offset="0.2805" style="stop-color:#8BCBF9"/>
			<stop  offset="0.3878" style="stop-color:#6FBFF8"/>
			<stop  offset="0.5032" style="stop-color:#5AB5F6"/>
			<stop  offset="0.6305" style="stop-color:#4BAEF6"/>
			<stop  offset="0.7791" style="stop-color:#42AAF5"/>
			<stop  offset="1" style="stop-color:#3FA9F5"/>
		</linearGradient>
		<polygon class="st44" points="241.1,84.9 155.4,0 145.5,0 61.8,94.8 		"/>
		<linearGradient id="SVGID_41_" gradientUnits="userSpaceOnUse" x1="155.4117" y1="42.4438" x2="241.0669" y2="42.4438">
			<stop  offset="0" style="stop-color:#CCE0F4"/>
			<stop  offset="6.405089e-02" style="stop-color:#C3DCF2"/>
			<stop  offset="0.1706" style="stop-color:#A9D2EE"/>
			<stop  offset="0.3066" style="stop-color:#80C2E7"/>
			<stop  offset="0.4649" style="stop-color:#47ACDE"/>
			<stop  offset="0.5674" style="stop-color:#1E9CD7"/>
			<stop  offset="0.8652" style="stop-color:#0075BE"/>
			<stop  offset="0.9944" style="stop-color:#005B97"/>
		</linearGradient>
		<polygon class="st45" points="237.8,0 155.4,0 241.1,84.9 		"/>
		<linearGradient id="SVGID_42_" gradientUnits="userSpaceOnUse" x1="237.8187" y1="42.4438" x2="366.5457" y2="42.4438">
			<stop  offset="0" style="stop-color:#FFFFFF"/>
			<stop  offset="7.731539e-02" style="stop-color:#DCF3E9"/>
			<stop  offset="0.2015" style="stop-color:#ABE3CA"/>
			<stop  offset="0.3289" style="stop-color:#81D5AF"/>
			<stop  offset="0.4575" style="stop-color:#5FC99A"/>
			<stop  offset="0.5876" style="stop-color:#44C089"/>
			<stop  offset="0.7198" style="stop-color:#31BA7D"/>
			<stop  offset="0.8555" style="stop-color:#26B675"/>
			<stop  offset="1" style="stop-color:#22B573"/>
		</linearGradient>
		<polygon class="st46" points="366.5,0 237.8,0 241.1,84.9 		"/>
		<linearGradient id="SVGID_43_" gradientUnits="userSpaceOnUse" x1="12.9933" y1="47.4157" x2="145.5045" y2="47.4157">
			<stop  offset="0" style="stop-color:#FFFFFF"/>
			<stop  offset="8.435369e-02" style="stop-color:#D5ECFD"/>
			<stop  offset="0.1792" style="stop-color:#ADDAFB"/>
			<stop  offset="0.2805" style="stop-color:#8BCBF9"/>
			<stop  offset="0.3878" style="stop-color:#6FBFF8"/>
			<stop  offset="0.5032" style="stop-color:#5AB5F6"/>
			<stop  offset="0.6305" style="stop-color:#4BAEF6"/>
			<stop  offset="0.7791" style="stop-color:#42AAF5"/>
			<stop  offset="1" style="stop-color:#3FA9F5"/>
		</linearGradient>
		<polygon class="st47" points="145.5,0 13,0 61.8,94.8 		"/>
		<linearGradient id="SVGID_44_" gradientUnits="userSpaceOnUse" x1="1.4668" y1="86.7295" x2="61.8223" y2="86.7295">
			<stop  offset="0" style="stop-color:#FFFFFF"/>
			<stop  offset="8.435369e-02" style="stop-color:#D5ECFD"/>
			<stop  offset="0.1792" style="stop-color:#ADDAFB"/>
			<stop  offset="0.2805" style="stop-color:#8BCBF9"/>
			<stop  offset="0.3878" style="stop-color:#6FBFF8"/>
			<stop  offset="0.5032" style="stop-color:#5AB5F6"/>
			<stop  offset="0.6305" style="stop-color:#4BAEF6"/>
			<stop  offset="0.7791" style="stop-color:#42AAF5"/>
			<stop  offset="1" style="stop-color:#3FA9F5"/>
		</linearGradient>
		<polygon class="st48" points="13,0 1.5,0 1.5,173.5 61.8,94.8 		"/>
		<linearGradient id="SVGID_45_" gradientUnits="userSpaceOnUse" x1="1.4668" y1="161.5977" x2="80.2739" y2="161.5977">
			<stop  offset="0" style="stop-color:#FFFFFF"/>
			<stop  offset="7.731539e-02" style="stop-color:#DCF3E9"/>
			<stop  offset="0.2015" style="stop-color:#ABE3CA"/>
			<stop  offset="0.3289" style="stop-color:#81D5AF"/>
			<stop  offset="0.4575" style="stop-color:#5FC99A"/>
			<stop  offset="0.5876" style="stop-color:#44C089"/>
			<stop  offset="0.7198" style="stop-color:#31BA7D"/>
			<stop  offset="0.8555" style="stop-color:#26B675"/>
			<stop  offset="1" style="stop-color:#22B573"/>
		</linearGradient>
		<polygon class="st49" points="61.8,94.8 1.5,173.5 1.5,228.4 80.3,197.4 		"/>
		<linearGradient id="SVGID_46_" gradientUnits="userSpaceOnUse" x1="1.4668" y1="235.3044" x2="80.2739" y2="235.3044">
			<stop  offset="0" style="stop-color:#CCE0F4"/>
			<stop  offset="6.405089e-02" style="stop-color:#C3DCF2"/>
			<stop  offset="0.1706" style="stop-color:#A9D2EE"/>
			<stop  offset="0.3066" style="stop-color:#80C2E7"/>
			<stop  offset="0.4649" style="stop-color:#47ACDE"/>
			<stop  offset="0.5674" style="stop-color:#1E9CD7"/>
			<stop  offset="0.8652" style="stop-color:#0075BE"/>
			<stop  offset="0.9944" style="stop-color:#005B97"/>
		</linearGradient>
		<polygon class="st50" points="80.3,197.4 1.5,228.4 1.5,264.4 44.7,273.2 		"/>
		<linearGradient id="SVGID_47_" gradientUnits="userSpaceOnUse" x1="44.688" y1="235.3044" x2="187.689" y2="235.3044">
			<stop  offset="0" style="stop-color:#CCE0F4"/>
			<stop  offset="6.405089e-02" style="stop-color:#C3DCF2"/>
			<stop  offset="0.1706" style="stop-color:#A9D2EE"/>
			<stop  offset="0.3066" style="stop-color:#80C2E7"/>
			<stop  offset="0.4649" style="stop-color:#47ACDE"/>
			<stop  offset="0.5674" style="stop-color:#1E9CD7"/>
			<stop  offset="0.8652" style="stop-color:#0075BE"/>
			<stop  offset="0.9944" style="stop-color:#005B97"/>
		</linearGradient>
		<polygon class="st51" points="80.3,197.4 44.7,273.2 187.7,244.6 		"/>
		<linearGradient id="SVGID_48_" gradientUnits="userSpaceOnUse" x1="187.689" y1="334.0612" x2="308.583" y2="334.0612">
			<stop  offset="0.1775" style="stop-color:#0071BC"/>
			<stop  offset="1" style="stop-color:#FFFFFF"/>
		</linearGradient>
		<polygon class="st52" points="187.7,244.6 231.4,423.5 308.6,304.1 		"/>
		<linearGradient id="SVGID_49_" gradientUnits="userSpaceOnUse" x1="91.4761" y1="334.0612" x2="231.4331" y2="334.0612">
			<stop  offset="0" style="stop-color:#FFFFFF"/>
			<stop  offset="7.731539e-02" style="stop-color:#DCF3E9"/>
			<stop  offset="0.2015" style="stop-color:#ABE3CA"/>
			<stop  offset="0.3289" style="stop-color:#81D5AF"/>
			<stop  offset="0.4575" style="stop-color:#5FC99A"/>
			<stop  offset="0.5876" style="stop-color:#44C089"/>
			<stop  offset="0.7198" style="stop-color:#31BA7D"/>
			<stop  offset="0.8555" style="stop-color:#26B675"/>
			<stop  offset="1" style="stop-color:#22B573"/>
		</linearGradient>
		<polygon class="st53" points="91.5,344.7 231.4,423.5 187.7,244.6 		"/>
		<linearGradient id="SVGID_50_" gradientUnits="userSpaceOnUse" x1="44.688" y1="294.6623" x2="187.689" y2="294.6623">
			<stop  offset="0" style="stop-color:#FFFFFF"/>
			<stop  offset="7.731539e-02" style="stop-color:#DCF3E9"/>
			<stop  offset="0.2015" style="stop-color:#ABE3CA"/>
			<stop  offset="0.3289" style="stop-color:#81D5AF"/>
			<stop  offset="0.4575" style="stop-color:#5FC99A"/>
			<stop  offset="0.5876" style="stop-color:#44C089"/>
			<stop  offset="0.7198" style="stop-color:#31BA7D"/>
			<stop  offset="0.8555" style="stop-color:#26B675"/>
			<stop  offset="1" style="stop-color:#22B573"/>
		</linearGradient>
		<polygon class="st54" points="44.7,273.2 91.5,344.7 187.7,244.6 		"/>
		<linearGradient id="SVGID_51_" gradientUnits="userSpaceOnUse" x1="1.4668" y1="304.5491" x2="91.4761" y2="304.5491">
			<stop  offset="0" style="stop-color:#CCE0F4"/>
			<stop  offset="6.405089e-02" style="stop-color:#C3DCF2"/>
			<stop  offset="0.1706" style="stop-color:#A9D2EE"/>
			<stop  offset="0.3066" style="stop-color:#80C2E7"/>
			<stop  offset="0.4649" style="stop-color:#47ACDE"/>
			<stop  offset="0.5674" style="stop-color:#1E9CD7"/>
			<stop  offset="0.8652" style="stop-color:#0075BE"/>
			<stop  offset="0.9944" style="stop-color:#005B97"/>
		</linearGradient>
		<polygon class="st55" points="44.7,273.2 1.5,264.4 1.5,289.3 91.5,344.7 		"/>
		<linearGradient id="SVGID_52_" gradientUnits="userSpaceOnUse" x1="1.4668" y1="365.6389" x2="91.4761" y2="365.6389">
			<stop  offset="0" style="stop-color:#FFFFFF"/>
			<stop  offset="7.731539e-02" style="stop-color:#DCF3E9"/>
			<stop  offset="0.2015" style="stop-color:#ABE3CA"/>
			<stop  offset="0.3289" style="stop-color:#81D5AF"/>
			<stop  offset="0.4575" style="stop-color:#5FC99A"/>
			<stop  offset="0.5876" style="stop-color:#44C089"/>
			<stop  offset="0.7198" style="stop-color:#31BA7D"/>
			<stop  offset="0.8555" style="stop-color:#26B675"/>
			<stop  offset="1" style="stop-color:#22B573"/>
		</linearGradient>
		<polygon class="st56" points="1.5,289.3 1.5,442 91.5,344.7 		"/>
		<linearGradient id="SVGID_53_" gradientUnits="userSpaceOnUse" x1="1.4668" y1="441.8843" x2="97.0961" y2="441.8843">
			<stop  offset="0" style="stop-color:#CCE0F4"/>
			<stop  offset="6.405089e-02" style="stop-color:#C3DCF2"/>
			<stop  offset="0.1706" style="stop-color:#A9D2EE"/>
			<stop  offset="0.3066" style="stop-color:#80C2E7"/>
			<stop  offset="0.4649" style="stop-color:#47ACDE"/>
			<stop  offset="0.5674" style="stop-color:#1E9CD7"/>
			<stop  offset="0.8652" style="stop-color:#0075BE"/>
			<stop  offset="0.9944" style="stop-color:#005B97"/>
		</linearGradient>
		<polygon class="st57" points="1.5,442 1.5,509.6 71.8,539.1 97.1,539.1 91.5,344.7 		"/>
		<linearGradient id="SVGID_54_" gradientUnits="userSpaceOnUse" x1="1.4668" y1="524.356" x2="71.756" y2="524.356">
			<stop  offset="0" style="stop-color:#CCE0F4"/>
			<stop  offset="6.405089e-02" style="stop-color:#C3DCF2"/>
			<stop  offset="0.1706" style="stop-color:#A9D2EE"/>
			<stop  offset="0.3066" style="stop-color:#80C2E7"/>
			<stop  offset="0.4649" style="stop-color:#47ACDE"/>
			<stop  offset="0.5674" style="stop-color:#1E9CD7"/>
			<stop  offset="0.8652" style="stop-color:#0075BE"/>
			<stop  offset="0.9944" style="stop-color:#005B97"/>
		</linearGradient>
		<polygon class="st58" points="1.5,539.1 71.8,539.1 1.5,509.6 		"/>
		<linearGradient id="SVGID_55_" gradientUnits="userSpaceOnUse" x1="91.4761" y1="441.8843" x2="226.5688" y2="441.8843">
			<stop  offset="0" style="stop-color:#FFFFFF"/>
			<stop  offset="8.435369e-02" style="stop-color:#D5ECFD"/>
			<stop  offset="0.1792" style="stop-color:#ADDAFB"/>
			<stop  offset="0.2805" style="stop-color:#8BCBF9"/>
			<stop  offset="0.3878" style="stop-color:#6FBFF8"/>
			<stop  offset="0.5032" style="stop-color:#5AB5F6"/>
			<stop  offset="0.6305" style="stop-color:#4BAEF6"/>
			<stop  offset="0.7791" style="stop-color:#42AAF5"/>
			<stop  offset="1" style="stop-color:#3FA9F5"/>
		</linearGradient>
		<polygon class="st59" points="91.5,344.7 97.1,539.1 115,539.1 226.6,470.9 		"/>
		<linearGradient id="SVGID_56_" gradientUnits="userSpaceOnUse" x1="91.4761" y1="407.7847" x2="231.4331" y2="407.7847">
			<stop  offset="0" style="stop-color:#CCE0F4"/>
			<stop  offset="6.405089e-02" style="stop-color:#C3DCF2"/>
			<stop  offset="0.1706" style="stop-color:#A9D2EE"/>
			<stop  offset="0.3066" style="stop-color:#80C2E7"/>
			<stop  offset="0.4649" style="stop-color:#47ACDE"/>
			<stop  offset="0.5674" style="stop-color:#1E9CD7"/>
			<stop  offset="0.8652" style="stop-color:#0075BE"/>
			<stop  offset="0.9944" style="stop-color:#005B97"/>
		</linearGradient>
		<polygon class="st60" points="226.6,470.9 231.4,423.5 91.5,344.7 		"/>
		<linearGradient id="SVGID_57_" gradientUnits="userSpaceOnUse" x1="114.9799" y1="504.9717" x2="248.0432" y2="504.9717">
			<stop  offset="0" style="stop-color:#CCE0F4"/>
			<stop  offset="6.405089e-02" style="stop-color:#C3DCF2"/>
			<stop  offset="0.1706" style="stop-color:#A9D2EE"/>
			<stop  offset="0.3066" style="stop-color:#80C2E7"/>
			<stop  offset="0.4649" style="stop-color:#47ACDE"/>
			<stop  offset="0.5674" style="stop-color:#1E9CD7"/>
			<stop  offset="0.8652" style="stop-color:#0075BE"/>
			<stop  offset="0.9944" style="stop-color:#005B97"/>
		</linearGradient>
		<polygon class="st61" points="115,539.1 248,539.1 226.6,470.9 		"/>
	</g>
</g>
<g id="Layer_5" class="st62">
	<g class="st63">
		<path class="st64" d="M681.8,2.2l0.3,1c0.1,0.2,0.1,0.4,0.1,0.7h0c0-0.2,0.1-0.4,0.2-0.6l0.3-1h0.3l0.3,1c0.1,0.2,0.1,0.5,0.2,0.7
			h0c0-0.2,0.1-0.4,0.1-0.7l0.3-1h0.3l-0.6,2h-0.3l-0.3-1c-0.1-0.2-0.1-0.4-0.2-0.7h0c0,0.2-0.1,0.5-0.2,0.7l-0.3,1h-0.3l-0.6-2
			H681.8z"/>
		<path class="st64" d="M684.6,2.2l0.3,1c0.1,0.2,0.1,0.4,0.1,0.7h0c0-0.2,0.1-0.4,0.2-0.6l0.3-1h0.3l0.3,1c0.1,0.2,0.1,0.5,0.2,0.7
			h0c0-0.2,0.1-0.4,0.1-0.7l0.3-1h0.3l-0.6,2h-0.3l-0.3-1c-0.1-0.2-0.1-0.4-0.2-0.7h0c0,0.2-0.1,0.5-0.2,0.7l-0.3,1h-0.3l-0.6-2
			H684.6z"/>
		<path class="st64" d="M687.4,2.2l0.3,1c0.1,0.2,0.1,0.4,0.1,0.7h0c0-0.2,0.1-0.4,0.2-0.6l0.3-1h0.3l0.3,1c0.1,0.2,0.1,0.5,0.2,0.7
			h0c0-0.2,0.1-0.4,0.1-0.7l0.3-1h0.3l-0.6,2h-0.3l-0.3-1c-0.1-0.2-0.1-0.4-0.2-0.7h0c0,0.2-0.1,0.5-0.2,0.7l-0.3,1h-0.3l-0.6-2
			H687.4z"/>
		<path class="st64" d="M690,4.2c-0.1,0-0.2-0.1-0.2-0.3c0-0.2,0.1-0.3,0.2-0.3c0.1,0,0.2,0.1,0.2,0.3C690.2,4.1,690.1,4.2,690,4.2
			L690,4.2z"/>
		<path class="st64" d="M690.5,2.8c0-0.3,0-0.5,0-0.7h0.3l0,0.3h0c0.1-0.3,0.4-0.4,0.7-0.4c0.5,0,0.8,0.4,0.8,1
			c0,0.7-0.4,1.1-0.9,1.1c-0.3,0-0.5-0.1-0.6-0.3h0V5h-0.3V2.8z M690.8,3.4c0,0.1,0,0.1,0,0.2c0.1,0.3,0.3,0.4,0.5,0.4
			c0.4,0,0.6-0.3,0.6-0.8c0-0.4-0.2-0.8-0.6-0.8c-0.2,0-0.5,0.2-0.5,0.5c0,0.1,0,0.1,0,0.2V3.4z"/>
		<path class="st64" d="M692.5,3.8c0.1,0.1,0.3,0.1,0.5,0.1c0.2,0,0.4-0.1,0.4-0.3c0-0.2-0.1-0.3-0.4-0.4c-0.3-0.1-0.5-0.3-0.5-0.6
			c0-0.3,0.3-0.6,0.7-0.6c0.2,0,0.4,0.1,0.5,0.1l-0.1,0.3c-0.1,0-0.2-0.1-0.4-0.1c-0.2,0-0.3,0.1-0.3,0.3c0,0.2,0.1,0.2,0.4,0.3
			c0.3,0.1,0.5,0.3,0.5,0.6c0,0.4-0.3,0.6-0.7,0.6c-0.2,0-0.4-0.1-0.5-0.1L692.5,3.8z"/>
		<path class="st64" d="M695.7,1.2v2.5c0,0.2,0,0.4,0,0.5h-0.3l0-0.4h0c-0.1,0.2-0.3,0.4-0.6,0.4c-0.5,0-0.8-0.4-0.8-1
			c0-0.7,0.4-1.1,0.9-1.1c0.3,0,0.5,0.1,0.6,0.3h0V1.2H695.7z M695.3,3c0-0.1,0-0.1,0-0.2c-0.1-0.2-0.2-0.4-0.5-0.4
			c-0.4,0-0.6,0.3-0.6,0.8c0,0.4,0.2,0.8,0.6,0.8c0.2,0,0.4-0.2,0.5-0.4c0-0.1,0-0.1,0-0.2V3z"/>
		<path class="st64" d="M697.7,3.9c0,0.5-0.1,0.8-0.3,0.9c-0.2,0.2-0.5,0.2-0.7,0.2c-0.2,0-0.5-0.1-0.6-0.2l0.1-0.3
			c0.1,0.1,0.3,0.2,0.6,0.2c0.4,0,0.6-0.2,0.6-0.7V3.8h0c-0.1,0.2-0.3,0.3-0.6,0.3c-0.5,0-0.8-0.4-0.8-1c0-0.7,0.4-1.1,0.9-1.1
			c0.3,0,0.5,0.2,0.6,0.3h0l0-0.3h0.3c0,0.1,0,0.3,0,0.6V3.9z M697.4,3c0-0.1,0-0.1,0-0.2c-0.1-0.2-0.2-0.4-0.5-0.4
			c-0.3,0-0.6,0.3-0.6,0.8c0,0.4,0.2,0.7,0.6,0.7c0.2,0,0.4-0.1,0.5-0.4c0-0.1,0-0.1,0-0.2V3z"/>
		<path class="st64" d="M698.2,2.8c0-0.2,0-0.4,0-0.6h0.3l0,0.4h0c0.1-0.3,0.3-0.4,0.5-0.4c0,0,0.1,0,0.1,0v0.3c0,0-0.1,0-0.1,0
			c-0.2,0-0.4,0.2-0.5,0.5c0,0.1,0,0.1,0,0.2v1.1h-0.3L698.2,2.8z"/>
		<path class="st64" d="M700.6,3.7c0,0.2,0,0.3,0,0.5h-0.3l0-0.3h0c-0.1,0.2-0.3,0.3-0.6,0.3c-0.4,0-0.6-0.3-0.6-0.6
			c0-0.5,0.4-0.8,1.1-0.8v0c0-0.2,0-0.5-0.4-0.5c-0.2,0-0.4,0.1-0.5,0.2l-0.1-0.2c0.2-0.1,0.4-0.2,0.6-0.2c0.6,0,0.7,0.4,0.7,0.8
			V3.7z M700.3,3.2c-0.4,0-0.8,0.1-0.8,0.5c0,0.2,0.2,0.4,0.3,0.4c0.3,0,0.4-0.2,0.5-0.3c0,0,0-0.1,0-0.1V3.2z"/>
		<path class="st64" d="M701,2.8c0-0.3,0-0.5,0-0.7h0.3l0,0.3h0c0.1-0.3,0.4-0.4,0.7-0.4c0.5,0,0.8,0.4,0.8,1c0,0.7-0.4,1.1-0.9,1.1
			c-0.3,0-0.5-0.1-0.6-0.3h0V5H701V2.8z M701.4,3.4c0,0.1,0,0.1,0,0.2c0.1,0.3,0.3,0.4,0.5,0.4c0.4,0,0.6-0.3,0.6-0.8
			c0-0.4-0.2-0.8-0.6-0.8c-0.2,0-0.5,0.2-0.5,0.5c0,0.1,0,0.1,0,0.2V3.4z"/>
		<path class="st64" d="M703.1,1.2h0.3v1.3h0c0.1-0.1,0.1-0.2,0.2-0.3c0.1-0.1,0.2-0.1,0.4-0.1c0.3,0,0.7,0.2,0.7,0.9v1.2h-0.3V3
			c0-0.3-0.1-0.6-0.4-0.6c-0.2,0-0.4,0.2-0.5,0.4c0,0.1,0,0.1,0,0.2v1.2h-0.3V1.2z"/>
		<path class="st64" d="M705.3,1.8c-0.1,0-0.2-0.1-0.2-0.2c0-0.1,0.1-0.2,0.2-0.2c0.1,0,0.2,0.1,0.2,0.2
			C705.6,1.7,705.5,1.8,705.3,1.8L705.3,1.8z M705.2,4.2v-2h0.3v2H705.2z"/>
		<path class="st64" d="M707.3,4.1c-0.1,0-0.3,0.1-0.5,0.1c-0.6,0-1-0.4-1-1c0-0.6,0.4-1.1,1-1.1c0.2,0,0.4,0.1,0.5,0.1l-0.1,0.3
			c-0.1,0-0.2-0.1-0.4-0.1c-0.4,0-0.7,0.3-0.7,0.8c0,0.5,0.3,0.8,0.7,0.8c0.2,0,0.3-0.1,0.4-0.1L707.3,4.1z"/>
		<path class="st64" d="M707.5,3.8c0.1,0.1,0.3,0.1,0.5,0.1c0.2,0,0.4-0.1,0.4-0.3c0-0.2-0.1-0.3-0.4-0.4c-0.3-0.1-0.5-0.3-0.5-0.6
			c0-0.3,0.3-0.6,0.7-0.6c0.2,0,0.4,0.1,0.5,0.1l-0.1,0.3c-0.1,0-0.2-0.1-0.4-0.1c-0.2,0-0.3,0.1-0.3,0.3c0,0.2,0.1,0.2,0.4,0.3
			c0.3,0.1,0.5,0.3,0.5,0.6c0,0.4-0.3,0.6-0.7,0.6c-0.2,0-0.4-0.1-0.5-0.1L707.5,3.8z"/>
		<path class="st64" d="M709.1,4.2c-0.1,0-0.2-0.1-0.2-0.3c0-0.2,0.1-0.3,0.2-0.3c0.1,0,0.2,0.1,0.2,0.3
			C709.4,4.1,709.3,4.2,709.1,4.2L709.1,4.2z"/>
		<path class="st64" d="M711,4.1c-0.1,0-0.3,0.1-0.5,0.1c-0.6,0-0.9-0.4-0.9-1c0-0.6,0.4-1.1,1-1.1c0.2,0,0.4,0.1,0.5,0.1l-0.1,0.3
			c-0.1,0-0.2-0.1-0.4-0.1c-0.4,0-0.7,0.3-0.7,0.8c0,0.5,0.3,0.8,0.7,0.8c0.2,0,0.3-0.1,0.4-0.1L711,4.1z"/>
		<path class="st64" d="M712,4.2c-0.5,0-0.9-0.4-0.9-1c0-0.7,0.4-1.1,0.9-1.1c0.5,0,0.9,0.4,0.9,1C713,3.9,712.5,4.2,712,4.2
			L712,4.2z M712,4c0.3,0,0.6-0.3,0.6-0.8c0-0.3-0.2-0.8-0.6-0.8c-0.4,0-0.6,0.4-0.6,0.8C711.5,3.6,711.7,4,712,4L712,4z"/>
		<path class="st64" d="M713.3,2.7c0-0.2,0-0.4,0-0.6h0.3l0,0.3h0c0.1-0.2,0.3-0.4,0.6-0.4c0.3,0,0.5,0.2,0.5,0.4h0
			c0.1-0.1,0.1-0.2,0.2-0.3c0.1-0.1,0.2-0.1,0.4-0.1c0.3,0,0.6,0.2,0.6,0.9v1.2h-0.3V3c0-0.4-0.1-0.6-0.4-0.6
			c-0.2,0-0.4,0.2-0.4,0.3c0,0.1,0,0.1,0,0.2v1.3h-0.3V3c0-0.3-0.1-0.6-0.4-0.6c-0.2,0-0.4,0.2-0.4,0.4c0,0.1,0,0.1,0,0.2v1.2h-0.3
			V2.7z"/>
	</g>
</g>
</svg>
