<?xml version="1.0" encoding="utf-8"?>
<!-- Generator: Adobe Illustrator 21.0.2, SVG Export Plug-In . SVG Version: 6.00 Build 0)  -->
<svg version="1.1" id="Layer_1" xmlns="http://www.w3.org/2000/svg" xmlns:xlink="http://www.w3.org/1999/xlink" x="0px" y="0px"
	 viewBox="0 0 896 137" style="enable-background:new 0 0 896 137;" xml:space="preserve">
<style type="text/css">
	.st0{fill:none;stroke:#333333;stroke-width:4;stroke-miterlimit:10;}
</style>
<g>
	<polygon class="st0" points="80,105.1 16,105.1 16,17.2 	"/>
	<polyline class="st0" points="144.5,53.6 144.5,104.6 103.5,104.6 103.5,47.6 	"/>
	<polyline class="st0" points="220.5,47.6 173.5,47.6 173.5,104.6 220.5,104.6 	"/>
	<polyline class="st0" points="279.5,75.6 239.5,75.6 239.5,104.6 295.5,104.6 295.5,47.6 249.5,47.6 	"/>
	<polyline class="st0" points="476,56 476,105.1 435,105.1 435,58 	"/>
	<polyline class="st0" points="504.2,107.6 504.2,44.6 543.2,44.6 543.2,107.6 	"/>
	<polyline class="st0" points="604.4,67.1 604.4,38.6 565.4,38.6 565.4,71.6 604.4,71.6 613.4,78.6 613.4,122.6 565.4,122.6 
		565.4,80.6 601.4,80.6 	"/>
	<line class="st0" x1="635.6" y1="18.4" x2="636.1" y2="106.9"/>
	<polyline class="st0" points="641,54.3 679,54.3 679.5,106.8 	"/>
	<polyline class="st0" points="740.4,75.6 700.4,75.6 700.4,104.6 756.4,104.6 756.4,47.6 710.4,47.6 	"/>
	<polyline class="st0" points="776,107.1 776,45.1 814.4,45.1 815,107.1 	"/>
	<polyline class="st0" points="873.5,46.9 834.5,46.9 834.5,69.9 873.5,69.9 873.5,105.4 834.5,105.4 	"/>
	<polyline class="st0" points="386,20.6 411.5,20.6 411.5,104.6 374.5,104.6 356,104.6 	"/>
</g>
</svg>
